<mxfile host="app.diagrams.net" modified="2020-10-03T14:14:10.246Z" agent="5.0 (Macintosh; Intel Mac OS X 10_15_7) AppleWebKit/605.1.15 (KHTML, like Gecko) Version/14.0 Safari/605.1.15" etag="l-DbGZMM20XD9IvyLOdp" version="13.7.7" type="github">
  <diagram id="C5RBs43oDa-KdzZeNtuy" name="Page-1">
    <mxGraphModel dx="906" dy="599" grid="1" gridSize="10" guides="1" tooltips="1" connect="1" arrows="1" fold="1" page="1" pageScale="1" pageWidth="827" pageHeight="1169" math="0" shadow="0">
      <root>
        <mxCell id="WIyWlLk6GJQsqaUBKTNV-0" />
        <mxCell id="WIyWlLk6GJQsqaUBKTNV-1" parent="WIyWlLk6GJQsqaUBKTNV-0" />
        <mxCell id="1R-clwJ_AJxIDlM6BpqC-4" style="edgeStyle=orthogonalEdgeStyle;rounded=0;orthogonalLoop=1;jettySize=auto;html=1;exitX=0.5;exitY=1;exitDx=0;exitDy=0;exitPerimeter=0;entryX=0.5;entryY=0;entryDx=0;entryDy=0;entryPerimeter=0;" edge="1" parent="WIyWlLk6GJQsqaUBKTNV-1" source="1R-clwJ_AJxIDlM6BpqC-0" target="1R-clwJ_AJxIDlM6BpqC-3">
          <mxGeometry relative="1" as="geometry" />
        </mxCell>
        <mxCell id="1R-clwJ_AJxIDlM6BpqC-0" value="Start" style="strokeWidth=2;html=1;shape=mxgraph.flowchart.start_2;whiteSpace=wrap;" vertex="1" parent="WIyWlLk6GJQsqaUBKTNV-1">
          <mxGeometry x="320" y="30" width="130" height="60" as="geometry" />
        </mxCell>
        <mxCell id="1R-clwJ_AJxIDlM6BpqC-9" value="" style="edgeStyle=orthogonalEdgeStyle;rounded=0;orthogonalLoop=1;jettySize=auto;html=1;" edge="1" parent="WIyWlLk6GJQsqaUBKTNV-1" source="1R-clwJ_AJxIDlM6BpqC-1" target="1R-clwJ_AJxIDlM6BpqC-8">
          <mxGeometry relative="1" as="geometry" />
        </mxCell>
        <mxCell id="1R-clwJ_AJxIDlM6BpqC-1" value="Input(User1 Choice)&lt;br&gt;X or O" style="rounded=1;whiteSpace=wrap;html=1;" vertex="1" parent="WIyWlLk6GJQsqaUBKTNV-1">
          <mxGeometry x="325" y="240" width="120" height="40" as="geometry" />
        </mxCell>
        <mxCell id="1R-clwJ_AJxIDlM6BpqC-6" value="" style="edgeStyle=orthogonalEdgeStyle;rounded=0;orthogonalLoop=1;jettySize=auto;html=1;" edge="1" parent="WIyWlLk6GJQsqaUBKTNV-1" source="1R-clwJ_AJxIDlM6BpqC-3" target="1R-clwJ_AJxIDlM6BpqC-1">
          <mxGeometry relative="1" as="geometry" />
        </mxCell>
        <mxCell id="1R-clwJ_AJxIDlM6BpqC-3" value="User is ready?" style="strokeWidth=2;html=1;shape=mxgraph.flowchart.decision;whiteSpace=wrap;" vertex="1" parent="WIyWlLk6GJQsqaUBKTNV-1">
          <mxGeometry x="335" y="110" width="100" height="100" as="geometry" />
        </mxCell>
        <mxCell id="1R-clwJ_AJxIDlM6BpqC-7" value="Yes" style="text;html=1;align=center;verticalAlign=middle;resizable=0;points=[];autosize=1;" vertex="1" parent="WIyWlLk6GJQsqaUBKTNV-1">
          <mxGeometry x="380" y="210" width="40" height="20" as="geometry" />
        </mxCell>
        <mxCell id="1R-clwJ_AJxIDlM6BpqC-11" value="" style="edgeStyle=orthogonalEdgeStyle;rounded=0;orthogonalLoop=1;jettySize=auto;html=1;" edge="1" parent="WIyWlLk6GJQsqaUBKTNV-1" source="1R-clwJ_AJxIDlM6BpqC-8" target="1R-clwJ_AJxIDlM6BpqC-10">
          <mxGeometry relative="1" as="geometry" />
        </mxCell>
        <mxCell id="1R-clwJ_AJxIDlM6BpqC-8" value="Ask for position from&lt;br&gt;User1" style="rounded=1;whiteSpace=wrap;html=1;" vertex="1" parent="WIyWlLk6GJQsqaUBKTNV-1">
          <mxGeometry x="325" y="310" width="120" height="40" as="geometry" />
        </mxCell>
        <mxCell id="1R-clwJ_AJxIDlM6BpqC-13" value="" style="edgeStyle=orthogonalEdgeStyle;rounded=0;orthogonalLoop=1;jettySize=auto;html=1;" edge="1" parent="WIyWlLk6GJQsqaUBKTNV-1" source="1R-clwJ_AJxIDlM6BpqC-10" target="1R-clwJ_AJxIDlM6BpqC-12">
          <mxGeometry relative="1" as="geometry" />
        </mxCell>
        <mxCell id="1R-clwJ_AJxIDlM6BpqC-10" value="Update board, Clear console &amp;nbsp;&amp;amp; Display the board" style="rounded=1;whiteSpace=wrap;html=1;" vertex="1" parent="WIyWlLk6GJQsqaUBKTNV-1">
          <mxGeometry x="325" y="380" width="120" height="40" as="geometry" />
        </mxCell>
        <mxCell id="1R-clwJ_AJxIDlM6BpqC-15" value="" style="edgeStyle=orthogonalEdgeStyle;rounded=0;orthogonalLoop=1;jettySize=auto;html=1;" edge="1" parent="WIyWlLk6GJQsqaUBKTNV-1" source="1R-clwJ_AJxIDlM6BpqC-12" target="1R-clwJ_AJxIDlM6BpqC-14">
          <mxGeometry relative="1" as="geometry" />
        </mxCell>
        <mxCell id="1R-clwJ_AJxIDlM6BpqC-12" value="Ask for position from&lt;br&gt;User2" style="rounded=1;whiteSpace=wrap;html=1;" vertex="1" parent="WIyWlLk6GJQsqaUBKTNV-1">
          <mxGeometry x="325" y="450" width="120" height="40" as="geometry" />
        </mxCell>
        <mxCell id="1R-clwJ_AJxIDlM6BpqC-14" value="Update board, Clear console &amp;nbsp;&amp;amp; Display the board" style="rounded=1;whiteSpace=wrap;html=1;" vertex="1" parent="WIyWlLk6GJQsqaUBKTNV-1">
          <mxGeometry x="325" y="520" width="120" height="40" as="geometry" />
        </mxCell>
      </root>
    </mxGraphModel>
  </diagram>
</mxfile>
